

[IMG]http://img219.imageshack.us/img219/3973/85668774.jpg[/IMG]


General
Complete name                    : James Bond 007-GoldFinger(1964)HDTVrip[Dual audio][Eng Hindi]Current_HD
Format                           : AVI
Format/Info                      : Audio Video Interleave
Format profile                   : OpenDML
File size                        : 895 MiB
Duration                         : 1h 49mn
Overall bit rate                 : 1 139 Kbps
Writing application              : AVI-Mux GUI 1.17.8.3, Feb 16 201019:42:50

[IMG]http://www.veryicon.com/icon/png/System/Rhor%20v2%20Part%202/Audio%20And%20Video.png[/IMG]

Video
ID                               : 0
Format                           : MPEG-4 Visual
Format profile                   : Advanced Simple@L5
Format settings, BVOP            : Yes
Format settings, QPel            : No
Format settings, GMC             : No warppoints
Format settings, Matrix          : Default (H.263)
Codec ID                         : DX50
Codec ID/Hint                    : DivX 5
Duration                         : 1h 49mn
Bit rate                         : 911 Kbps
Width                            : 680 pixels
Height                           : 368 pixels
Display aspect ratio             : 16:9
Frame rate                       : 23.976 fps
Color space                      : YUV
Chroma subsampling               : 4:2:0
Bit depth                        : 8 bits
Scan type                        : Progressive
Bits/(Pixel*Frame)               : 0.152
Stream size                      : 716 MiB (80%)
Writing library                  : XviD 1.1.0 (UTC 2005-11-22)

[IMG]http://atifaslam.org/forum/wp-content/uploads/2010/01/audio_icon.jpg[/IMG]

Audio #1
ID                               : 1
Format                           : MPEG Audio
Format version                   : Version 1
Format profile                   : Layer 3
Mode                             : Joint stereo
Mode extension                   : MS Stereo
Codec ID                         : 55
Codec ID/Hint                    : MP3
Duration                         : 1h 49mn
Bit rate mode                    : Constant
Bit rate                         : 96.0 Kbps
Channel(s)                       : 2 channels
Sampling rate                    : 48.0 KHz
Stream size                      : 75.4 MiB (8%)
Alignment                        : Aligned on interleaves
Interleave, duration             : 755 ms (18.09 video frames)
Interleave, preload duration     : 216 ms
Writing library                  : LAME3.97 (beta)

[IMG]http://atifaslam.org/forum/wp-content/uploads/2010/01/audio_icon.jpg[/IMG]

Audio #2
ID                               : 2
Format                           : MPEG Audio
Format version                   : Version 1
Format profile                   : Layer 3
Mode                             : Joint stereo
Mode extension                   : MS Stereo
Codec ID                         : 55
Codec ID/Hint                    : MP3
Duration                         : 1h 49mn
Bit rate mode                    : Constant
Bit rate                         : 128 Kbps
Channel(s)                       : 2 channels
Sampling rate                    : 48.0 KHz
Stream size                      : 101 MiB (11%)
Alignment                        : Aligned on interleaves
Interleave, duration             : 755 ms (18.09 video frames)
Interleave, preload duration     : 216 ms
Title                            : CurrentHD
Writing library                  : LAME3.9

[IMG]http://img99.imageshack.us/img99/2379/67869504.jpg[/IMG]
[IMG]http://img63.imageshack.us/img63/3572/60686549.jpg[/IMG]
[IMG]http://img823.imageshack.us/img823/1075/51041799.jpg[/IMG]
[IMG]http://img268.imageshack.us/img268/4258/59980631.jpg[/IMG]
[IMG]http://img534.imageshack.us/img534/9883/95540328.jpg[/IMG]
[IMG]http://img716.imageshack.us/img716/8234/97774148.jpg[/IMG]
[IMG]http://img412.imageshack.us/img412/9203/30583667.jpg[/IMG]
[IMG]http://img818.imageshack.us/img818/8344/23901127.jpg[/IMG]





